<svg xmlns="http://www.w3.org/2000/svg" width="256" height="256" viewBox="0 0 256 256"><path fill="#1976d2" fill-opacity=".016" fill-rule="evenodd" d="M0 128.004v128.004l128.25-.254 128.25-.254.254-127.75L257.008 0H0zm.485.496c0 70.4.119 99.053.265 63.672s.146-92.98 0-128S.485 58.1.485 128.5"/><path fill="#1976d2" fill-opacity=".147" fill-rule="evenodd" d="M113.5 9.635c-1.1.222-4.7.889-8 1.483-13.849 2.49-33.889 10.631-46 18.687-6.954 4.626-20.122 16.469-26.345 23.695-11.861 13.772-22.647 35.049-26.127 51.54-2.564 12.146-2.826 37.928-.488 47.896 5.684 24.235 15.568 42.139 32.926 59.64 11.555 11.65 19.578 17.583 32.129 23.762 24.283 11.953 48.508 15.908 74.481 12.157 16.823-2.43 20.43-3.487 37.416-10.962 15.099-6.645 34.86-22.968 46.675-38.556 23.537-31.052 29.717-73.098 16.182-110.092-3.727-10.186-11.562-24.2-17.775-31.794-21.108-25.801-46.94-41.033-78.955-46.558-8.054-1.39-30.866-1.957-36.119-.898m2.5 7.945c-1.375.243-5.2.925-8.5 1.516-15.264 2.733-32.082 9.434-45.8 18.248-7.323 4.704-19.5 16.36-26.018 24.906C4.6 102.993 6.097 161.342 39.215 200c9.707 11.33 22.076 21.528 20.208 16.66-.597-1.557 2.055-4.101 3.405-3.266.504.311 1.147-1.482 1.43-3.986.424-3.767.124-4.971-1.737-6.98-2.078-2.242-4.521-3.234-4.521-1.836 0 .326.9 1.737 2 3.135 2.219 2.821 2.543 4.819.943 5.808-2.148 1.328-5.843-.639-8.045-4.283-1.246-2.064-4.434-5.778-7.082-8.255-7.002-6.546-6.674-7.997 3.669-16.247 8.79-7.011 10.462-7.724 12.462-5.314 1.767 2.129-.078 4.859-6.477 9.586-5.668 4.188-6.53 6.061-3.967 8.624 1.338 1.338 1.968 1.106 5.724-2.108 2.321-1.987 5.283-3.879 6.583-4.205 2.748-.69 7.043 2.083 8.897 5.743.798 1.578 2.152 2.433 4 2.53 1.674.087 4.373 1.597 6.738 3.77 2.17 1.993 4.742 3.624 5.716 3.624.973 0 3.307 1.35 5.186 3s4.538 3 5.908 3 4.553.912 7.073 2.027c3.122 1.381 6.395 1.968 10.274 1.841 4.301-.141 5.989.219 6.905 1.473 2.205 3.014 3.642 1.981 2.907-2.091-.372-2.062-.828-4.022-1.014-4.353-.185-.332-3.389-.89-7.118-1.241-17.656-1.657-37.925-12.795-51.144-28.104-12.083-13.993-19.787-35.265-19.002-52.464.342-7.491-.287-9.088-3.579-9.088-2.154 0-2.36.494-2.817 6.75-.43 5.889-.19 7.226 1.883 10.479 2.713 4.255 2.965 6.585 1.004 9.267-1.227 1.678-1.015 2.216 2 5.059 4.398 4.148 4.511 8.08.367 12.799C44.3 165.561 39.371 168 34.56 168c-2.849 0-4.475-.813-7.504-3.75-4.334-4.204-5.662-8.039-3.708-10.711 1.756-2.401 5.45-1.19 6.265 2.054.806 3.213 3.805 4.739 7.831 3.983 4.168-.781 6.184-4.241 4.797-8.227-.595-1.711-1.541-2.675-2.366-2.414-.756.239-3.514.62-6.128.846-4.349.377-5.051.115-8.25-3.084-4.175-4.175-4.36-6.186-.905-9.793l2.593-2.706-2.843-1.359c-2.689-1.286-2.858-1.749-3.136-8.628-.292-7.208-.27-7.281 2.648-8.507 2.941-1.237 2.942-1.238 1.044-3.582-2.947-3.639-2.48-8.776 1.102-12.122 2.098-1.959 3-3.744 3-5.933 0-4.24 1.874-4.656 7.308-1.622C41.138 95.141 44 95.7 44 93.945c0-.58-2.489-2.156-5.532-3.502-6.148-2.718-7.34-4.446-5.473-7.933.699-1.307.975-3.495.619-4.914-.556-2.214-.187-2.748 2.75-3.975 1.865-.779 3.698-1.913 4.073-2.519.932-1.509 4.53-1.395 4.705.148.077.688.19 2.345.25 3.684.147 3.306 5.937 6.868 8.163 5.021 1.303-1.082.826-1.887-3.474-5.855-6.754-6.232-7.332-9.049-2.788-13.593C49.222 58.578 51.476 57 52.302 57s1.953-1.237 2.504-2.75C55.94 51.139 61.341 45 62.944 45 64.263 45 68 48.665 68 49.96c0 .527-1.128 2.005-2.507 3.284l-2.508 2.325 4.508 4.424c4.916 4.825 5.592 7.313 2.507 9.239-1.1.687-2 1.769-2 2.405s-1.527 2.496-3.393 4.135-3.731 4.048-4.144 5.354c-1.166 3.685-3.454 6.736-5.552 7.402C53.739 88.9 53 90.05 53 91.502c0 3.525-1.821 7.725-4.399 10.142-2.613 2.452-2.511 7.793.17 8.822 2.023.776 2.327.356 5.746-7.966 7.062-17.186 19.109-31.189 34.552-40.162 5.489-3.189 8.419-5.552 9.029-7.28.497-1.407 1.333-3.307 1.858-4.223.672-1.172.524-2.021-.501-2.872-1.187-.986-1.455-.855-1.455.712 0 2.006-6.298 8.621-9.153 9.613-2.484.864-5.091-1.527-4.692-4.303.229-1.592 1.186-2.6 2.84-2.988 1.372-.322 2.649-1.386 2.837-2.365.302-1.566-.186-1.701-4.044-1.123-4.038.606-4.643.397-7.588-2.615-4.347-4.447-4.234-7.779.402-11.85 3.404-2.989 3.913-3.127 9.25-2.514 4.24.487 6.156 1.25 7.686 3.059 2.801 3.315 3.3 3.064 3.655-1.839.28-3.88.564-4.279 3.258-4.586 1.624-.185 4.047-1.197 5.385-2.25 2.709-2.131 5.348-2.421 8.188-.901 1.493.799 2.112.602 2.933-.933 1.607-3.002 4.52-3.388 8.863-1.172 5.295 2.702 5.801 4.524 2.154 7.772-2.934 2.615-3.555 4.643-2.367 7.738 1.129 2.942 3.206 1.646 3.895-2.43C132.306 30.23 138.65 23 142.02 23c1.198 0 3.494 1.41 5.104 3.132 2.837 3.038 2.986 3.078 4.907 1.34 1.906-1.725 2.196-1.72 7.645.118 3.115 1.05 6.262 2.505 6.994 3.231 1.744 1.733 1.684 5.087-.17 9.525-2.065 4.941-1.901 6.161 1.087 8.119 3.275 2.146 4.16 1.325 2.048-1.899-2.291-3.497-2.048-5.526 1.052-8.761 3.365-3.512 6.973-3.603 10.573-.265 4.893 4.538 3.085 9.321-2.411 6.379-2.758-1.476-3.38-.515-1.451 2.239 2.294 3.275 1.987 5.831-1.085 9.037-3.742 3.906-7.336 3.683-12.254-.761-5.435-4.91-13.161-7.622-19.369-6.798-3.998.53-5.322.273-7.717-1.498-3.42-2.528-4.557-2.664-5.335-.638-.829 2.162-4.93 1.844-8.069-.624l-2.7-2.124-2.739 2.624c-3.186 3.052-7.772 3.464-9.738.874-1.164-1.533-1.332-1.157-1.36 3.045L107 54.091l3.75-.686c2.063-.377 4.792-1.072 6.065-1.545 3.693-1.372 19.013-.995 27.185.668 29.754 6.057 53.695 27.847 62.598 56.972 1.418 4.638 1.825 9.179 1.793 20-.038 12.948-.269 14.654-3.071 22.698-1.666 4.783-4.965 11.983-7.33 16-4.35 7.387-17.13 21-22.936 24.429-3.022 1.785-3.989 3.373-2.054 3.373.55 0 1 .643 1 1.429 0 .785.787 2.22 1.75 3.188 1.668 1.678 1.773 1.553 2.25-2.678.496-4.401.535-4.442 4.67-4.743 3.121-.227 4.573-.919 5.773-2.75 1.718-2.622 4.455-3.106 7.708-1.365 2.994 1.602 3.19.612.712-3.589-2.127-3.604-2.143-3.814-.402-5.087 1.245-.911 2.373-1.029 3.594-.376 1.562.837 10.108 13.572 13.75 20.492.717 1.364 1.617 2.478 2 2.478 1.018-.002 12.181-16.107 15.841-22.855 4.046-7.46 8.77-21.345 10.928-32.118 1.335-6.663 1.583-11.687 1.162-23.5-.577-16.175-1.096-18.806-3.612-18.294-1.25.255-1.552 1.291-1.312 4.5.171 2.292-.239 5.198-.913 6.457s-1.264 4.318-1.312 6.8l-.087 4.511-6.428.033c-4.133.022-6.572.468-6.833 1.25-.286.859 1.232 1.217 5.155 1.217 6.208 0 7.164.864 9.575 8.65 1.252 4.042 1.197 4.26-2.058 8.311-2.268 2.823-3.916 4.009-5.127 3.693-2.184-.571-2.37 1.615-.284 3.346 2.244 1.862 1.813 5.597-.968 8.377-3.406 3.406-5.623 3.901-9.75 2.177-3.999-1.671-5.241-3.828-3.778-6.561 2.454-4.586.282-5.44-2.379-.935-1.279 2.164-2.437 2.967-3.966 2.75-3.08-.439-3.342-4.392-.543-8.179 1.26-1.705 2.375-4.745 2.478-6.756s1.181-5.002 2.396-6.645c1.876-2.538 2.027-3.328.999-5.248-.762-1.424-.975-4.031-.575-7.046.383-2.888.229-5.037-.389-5.419-1.497-.925-1.252-4.833.443-7.074 1.959-2.589 1.893-3.113-.468-3.731-1.212-.317-2-1.364-2-2.657 0-1.174-.961-3.434-2.135-5.022-2.018-2.729-2.081-4.129-.371-8.281.504-1.226.254-1.75-.836-1.75-1.597 0-6.658-5.87-6.658-7.722 0-.568-.675-1.593-1.5-2.278-2.696-2.237-1.642-4.856 3.5-8.694 2.75-2.053 5-4.087 5-4.519 0-1.636-2.673-.681-6.178 2.208-4.941 4.073-8.221 4.382-8.633.814-.255-2.214-.876-2.746-3.5-3-2.729-.264-3.149-.664-2.913-2.771.301-2.686 13.154-16.894 17.097-18.9 2.286-1.163 2.308-1.28.604-3.163-2.697-2.981-15.751-11.588-23.271-15.344-8.342-4.166-20.24-8.111-30.706-10.179-7.834-1.548-30.553-2.746-35.5-1.872m-.885 12.052-2.385 1.671 2.659 1.393c3.989 2.09 5.866.402 3.361-3.024-1.171-1.601-1.403-1.603-3.635-.04m-30.46 7.197c-2.424 2.679-2.119 3.004 2.813 3.004h4.469l-1.584-2.416c-1.893-2.89-3.468-3.052-5.698-.588m22.375 3.921c.025 3.033.226 3.415 1.05 2 .561-.962 1.897-1.75 2.97-1.75 2.735 0 2.427-1.461-.597-2.839-3.497-1.594-3.457-1.624-3.423 2.589M140.5 40c.34.55 1.716 1 3.059 1S146 40.55 146 40s-1.377-1-3.059-1c-1.785 0-2.802.417-2.441 1m68.423 12.25c-.631 1.237-4.11 5.275-7.73 8.972s-6.336 6.968-6.034 7.27c.301.302 3.168-1.486 6.369-3.972 3.202-2.486 6.755-4.512 7.897-4.502 2.227.019 8.575 6.88 8.575 9.269 0 1.708-3.635 5.772-7.324 8.19-1.663 1.089-2.676 2.656-2.676 4.138 0 3.077 2.595 3.134 3.363.073.938-3.735 4.929-7.688 7.764-7.688 3.002 0 5.211 2.171 7.304 7.181.829 1.984 2.72 4.491 4.203 5.571 2.587 1.885 2.658 2.178 1.78 7.345-1.044 6.147-2.995 7.322-6.439 3.878-1.407-1.407-2.895-1.961-4.312-1.605-3.342.839-6.046 3.191-5.451 4.741.41 1.067 2.649 1.374 9.413 1.289 9.76-.122 14.381-1.01 14.364-2.758-.052-5.452-9.133-24.84-16.044-34.252-5.561-7.574-12.244-15.389-13.16-15.39-.393 0-1.231 1.013-1.862 2.25M114.5 59.981C89.922 65.341 70.618 80.802 62.039 102a8180 8180 0 0 0-3.233 8c-2.925 7.257-2.624 29.88.522 39.144 4.416 13.009 8.312 19.463 17.607 29.166C89.214 191.13 110.747 200 129.588 200c4.964 0 6.412-.331 6.412-1.465 0-.805-.942-1.969-2.094-2.585-1.718-.92-2.494-.746-4.315.964-2.8 2.631-4.78 2.64-7.139.032-1.491-1.647-2.592-1.929-5.565-1.427-5.038.851-9.887-1.635-9.887-5.07 0-1.965.628-2.625 2.938-3.087 2.504-.5 2.776-.846 1.842-2.342-1.382-2.214-.365-5.02 1.821-5.02.914 0 3.19.944 5.056 2.097s4.057 1.843 4.868 1.532c1.756-.674 1.977-2.629.298-2.629-.647 0-4.862-1.784-9.367-3.964-10.523-5.094-16.794-11.698-20.98-22.095-2.702-6.711-2.976-8.456-2.976-18.917 0-9.98.374-12.627 2.791-19.759 4.86-14.336 16.41-33.288 27.503-45.128 9.71-10.364 12.889-6.878 4.324 4.741C120.51 82.128 112 95.5 112 96.49c0 .251-1.09 2.83-2.423 5.733-4.103 8.936-5.577 15.934-5.577 26.487 0 23.947 10.63 35.485 31.31 33.984 8.812-.639 17.477-3.207 24.288-7.199 5.786-3.39 8.401-3.311 8.407.255.003 2.15-1.797 4.455-8.25 10.562-9.575 9.061-19.81 14.688-26.717 14.688-3.466 0-4.14.292-3.645 1.582.334.87.607 1.77.607 2 0 1.21 4.034.179 4.824-1.232.69-1.233 1.724-1.49 4.086-1.018 2.206.441 4.282.033 6.862-1.35 4.904-2.628 5.903-2.511 7.665.897.819 1.583 2.181 3.144 3.026 3.468 2.652 1.018 1.684 4.383-2.213 7.692l-3.75 3.185 3-.685c3.739-.854 13.541-5.777 18.933-9.51 8.952-6.197 18.742-17.941 22.948-27.529.965-2.2 2.171-4.9 2.681-6s1.604-5.292 2.432-9.315c7.172-34.845-13.406-69.515-47.994-80.86-6.648-2.181-10.197-2.674-21-2.92-7.15-.163-14.8.097-17 .576m-55.19 7.54c-1.204 1.889-1.835 3.654-1.403 3.922 1.2.741 6.406-5.128 5.643-6.362-1.06-1.716-1.899-1.233-4.24 2.44m64.261 15.05c-3.385 3.386-.918 7.838 4.018 7.251 3.688-.438 5.137-2.933 3.628-6.244-1.36-2.987-5.165-3.488-7.646-1.007M218 86c0 2.333.444 3 2 3 2.255 0 2.733-2.867.8-4.8-1.945-1.945-2.8-1.396-2.8 1.8m-74 5.71-6.5 3.517-10.284-.606c-9.217-.543-10.342-.425-10.834 1.136-.302.959-1.437 3.318-2.521 5.243-1.085 1.925-3.299 6.359-4.921 9.854-2.615 5.633-2.805 6.654-1.672 9 1.079 2.233 1.899 2.632 5.255 2.555 2.187-.049 5.433-.708 7.213-1.463 4.968-2.109 5.924-.529 4.409 7.284-5.029 25.941-5.312 28.032-3.969 29.374.768.768 1.869.987 2.623.521 1.631-1.009 10.315-32.291 10.386-37.413.094-6.869-5.704-10.193-12.688-7.275-2.04.852-4.106 1.304-4.591 1.005-.909-.562 4.328-11.851 5.968-12.864.505-.312 2.202.102 3.772.921 3.863 2.015 10.011 1.849 14.854-.401 6.083-2.827 12.5-8.821 12.5-11.676 0-3.128-1.139-2.965-9 1.288M32.05 105.44c-1.45 1.747-.276 2.56 3.7 2.56 2.206 0 3.275-.424 3.018-1.195-.611-1.834-5.504-2.828-6.718-1.365m191.45 11.371c-2.208.464-3.64 2.153-2.875 3.391.271.439 2.749.798 5.507.798 4.156 0 4.959-.287 4.691-1.678-.356-1.849-4.2-3.167-7.323-2.511M31.919 139.878c-2.262 1.845-2.297 2.021-.552 2.7 2.472.961 7.133-.739 7.133-2.602 0-2.254-3.867-2.311-6.581-.098m186.603 5.086c-.328.531 1.671 2.113 4.441 3.517l5.037 2.553v-2.482c0-1.43-.82-2.92-1.934-3.517-2.434-1.302-6.758-1.343-7.544-.071M137 190c0 .55.45 1 1 1s1-.45 1-1-.45-1-1-1-1 .45-1 1m6.654 5.057c-3.566 2.805-3.345 4.023.596 3.28 5.328-1.004 6.094-1.716 3.942-3.663-1.78-1.612-2.028-1.591-4.538.383m46.917 2.514c-2.092 2.093-1.995 2.825.811 6.087 2.175 2.529 2.621 2.662 5.112 1.526 3.125-1.423 5.506-.191 5.506 2.85 0 2.106-5.433 6.966-7.788 6.966-.9 0-3.939-2.475-6.754-5.5-4.568-4.908-7.458-6.776-7.458-4.82 0 .374 1.833 3.493 4.072 6.931 3.434 5.27 3.899 6.575 2.965 8.32-1.28 2.392-1.148 2.358-4.379 1.129-2.141-.814-2.551-.622-3.067 1.434-.983 3.915-6.426 7.023-11.591 6.619-2.166-.17-7.459-5.044-9.896-9.113-3.175-5.301-2.782-9.95 1.164-13.775 1.797-1.742 4.722-3.674 6.5-4.294 2.115-.737 3.232-1.784 3.232-3.029 0-2.403-.094-2.395-5.87.532-6.692 3.391-16.534 6.441-23.63 7.321l-6 .745-.318 3.882c-.175 2.135.162 4.362.75 4.95.587.587 1.068 4.787 1.068 9.333 0 7.241-.248 8.397-2 9.335-2.683 1.436-6-.359-6-3.247 0-1.995-.23-1.912-2.75.995-1.725 1.99-3.865 3.28-5.741 3.462-1.854.18-3.113.929-3.31 1.97-.974 5.136 31.025 2.779 52.227-3.847 13.273-4.149 28.717-13.001 39.607-22.705 2.889-2.574 3.009-2.924 1.549-4.537-.87-.962-1.582-2.445-1.582-3.297 0-2.199-2.348-3.875-8.314-5.937-6.386-2.206-6.2-2.2-8.115-.286m-116.454 7.534c-2.133 2.29-2.82 4.895-1.291 4.895.454 0 1.888-1.131 3.186-2.513 1.678-1.786 2.052-2.823 1.291-3.584-.76-.76-1.683-.412-3.186 1.202m95.325.271c-.348 1.385-1.715 3.228-3.037 4.094-2.938 1.925-3.144 6.065-.461 9.28 1.921 2.303 6.443 3.051 7.556 1.25.34-.55 1.716-1 3.059-1 3.218 0 3.091-1.802-.473-6.722-1.602-2.212-3.065-5.057-3.25-6.322-.472-3.227-2.637-3.597-3.394-.58m-85.266 2.848C82.335 210.065 82.781 211 85.5 211c2.749 0 3.225-1.154 1.176-2.854-.966-.802-1.641-.781-2.5.078M65.5 215c.34.55 1.068 1 1.618 1s.722-.45.382-1-1.068-1-1.618-1-.722.45-.382 1m28.965 3.055c-5.094 8.07-4.35 8.937 2.855 3.324 4.761-3.71 4.993-4.606 1.65-6.395-1.636-.876-2.298-.424-4.505 3.071m-21.192 2.665c-1.157.979-2.929 2.295-3.938 2.924-1.606 1.001-.898 1.581 5.665 4.64 11.537 5.378 31.358 11.691 32.65 10.4.733-.734 2.421-16.946 1.826-17.541-.237-.237-2.014.646-3.949 1.963l-3.517 2.394 2.495 1.833c2.836 2.084 3.222 4.819.947 6.707-1.272 1.056-2.169.988-5.034-.378-1.917-.914-4.113-1.662-4.879-1.662-.767 0-2.281-1.128-3.366-2.507-1.236-1.571-2.56-2.282-3.547-1.903-1.866.716-8.271-2.865-11.188-6.255-1.995-2.318-2.13-2.338-4.165-.615m44.394.947c-.979.978-.813 6.125.217 6.761 1.145.708 3.513-4.976 2.653-6.368-.747-1.209-1.897-1.367-2.87-.393"/><path fill="#1976d2" fill-opacity=".402" fill-rule="evenodd" d="M107.995 12.448c-25.407 4.179-49.567 16.977-67.694 35.858C29.34 59.723 24.018 67.164 18.12 79.319 7.401 101.406 3.938 123.657 7.51 147.5c6.435 42.956 38.091 79.994 80.925 94.683 12.041 4.129 23.201 5.749 39.857 5.784 20.962.044 30.213-1.701 49.208-9.283 31.466-12.56 58.685-41.52 68.784-73.184 4.779-14.986 5.22-18.168 5.125-37-.082-16.108-.368-19.039-2.727-27.888-3.397-12.738-11.73-29.961-19.413-40.123-17.074-22.58-39.907-38.001-67.322-45.466-10.186-2.774-13.32-3.164-28.447-3.545-11.726-.296-19.639.005-25.505.97m.505 4.534c-24.598 4.365-45.723 15.221-62.819 32.282C35.1 59.823 28.989 68.063 23.255 79.5c-7.463 14.887-12.25 34.038-12.248 49 .003 20.186 7.725 44.799 19.674 62.705 9.249 13.859 27.861 30.497 42.233 37.752 12.538 6.329 34.93 12.737 36.357 10.405 1.083-1.769 2.781-19.71 1.945-20.546-1.052-1.052-10.216 5.738-10.216 7.569 0 .712 1.16 1.823 2.579 2.469 2.689 1.225 2.837 3.436.263 3.936-2.073.402-10.842-3.479-10.842-4.8 0-1.265 3.121-4.431 7.977-8.09l3.45-2.6-2.697-2.5c-4.769-4.419.091-5.308 7.104-1.298 3.282 1.876 4.784 2.237 6.185 1.488 3.214-1.72 6.885-1.116 9.168 1.51 2.233 2.568 4.813 3.333 4.813 1.427 0-.591.787-.924 1.75-.741 1.378.262 1.872 1.715 2.325 6.824.593 6.686-.322 10.403-2.393 9.723-.65-.213-1.322-2.04-1.492-4.06-.171-2.02-.704-3.673-1.184-3.673-.481 0-2.155 1.913-3.72 4.25-2.236 3.338-3.549 4.318-6.118 4.567-3.885.377-6.678 4.615-4.111 6.239 2.669 1.689 25.8 1.068 36.445-.978 24.735-4.754 43.376-14.346 60.76-31.263 16.557-16.113 26.206-33.082 31.74-55.815 11.851-48.688-13.876-101.673-60.618-124.842-23.417-11.608-49.347-15.53-73.884-11.176m11.437 7.136c-.896 1.674-.763 2.941.631 6.034 2.549 5.652.908 6.94-5.053 3.963-5.086-2.541-5.327-3.07-2.539-5.594 1.087-.983 1.736-2.178 1.441-2.655-.841-1.362-5.051-1.012-6.328.526-.635.766-2.49 1.946-4.122 2.622-2.568 1.063-2.967 1.75-2.967 5.107 0 4.596-1.571 5.029-5 1.379-2.319-2.469-6-3.409-6-1.533 0 .531 2.023 3.244 4.495 6.028 7.169 8.072 7.657 9.076 6.34 13.06-.626 1.895-1.244 3.911-1.373 4.481s-3.952 3.037-8.496 5.482c-10.535 5.67-21.305 15.693-27.884 25.949C60.287 93.324 58 97.184 58 97.544s-.635 2.072-1.412 3.805c-8.359 18.654-6.626 46.081 4.081 64.588 9.515 16.447 23.771 28.116 43.014 35.209 8.549 3.151 9.303 3.252 24.817 3.302 12.827.042 17.19-.314 22-1.793 28.613-8.799 48.735-29.846 55.373-57.919 1.464-6.188 1.45-25.366-.021-31.472-2.994-12.419-10.161-26.066-18.588-35.393-5.031-5.569-15.655-13.086-24.374-17.245-13.259-6.326-33.591-9.233-45.89-6.562-2.475.538-6.248 1.261-8.385 1.607l-3.886.629.515-3.4c.283-1.87.076-6.26-.459-9.755-1.272-8.297-.361-9.309 5.715-6.358 2.475 1.203 4.5 2.631 4.5 3.174s-1.382 1.702-3.071 2.576c-2.503 1.294-2.85 1.853-1.877 3.025 1.785 2.152 3.504 1.766 7.405-1.658l3.526-3.096 3.085 2.596c3.596 3.026 4.238 3.137 5.983 1.035 1.094-1.319.88-1.948-1.378-4.041-3.561-3.303-3.626-8.154-.151-11.419l2.522-2.369-2.772-2.269c-3.514-2.877-6.867-2.966-8.335-.223m17.82 3.086c-3.271 2.822-6.095 9.312-5.348 12.289.691 2.755 8.009 7.985 9.705 6.936.678-.418 3.067-1.099 5.309-1.513 3.102-.572 4.497-.374 5.833.827.966.868 2.021 1.313 2.345.99.909-.909 5.81 2.414 8.798 5.964 4.469 5.311 8.63 5.241 12.199-.206 1.495-2.282 1.455-2.67-.627-6.038-2.751-4.452-1.52-6.62 2.529-4.453 3.947 2.113 5.177-.05 1.895-3.332-3.394-3.395-5.354-3.364-8.708.137-3.027 3.16-3.391 5.366-1.187 7.195 1.599 1.327 2.024 4.558.706 5.373-1.239.765-7.047-3.296-7.712-5.393-.328-1.034.132-3.29 1.024-5.014 3.261-6.306 1.91-10.915-3.209-10.951-1.205-.008-2.469-.465-2.809-1.015-1.215-1.966-5.253-1.026-6.992 1.628l-1.721 2.627-2.169-3.877c-2.662-4.761-6.008-5.498-9.861-2.174m2.42 4.349c.452 2.172 2.227 2.305 2.633.197.21-1.095-.28-1.75-1.31-1.75-.961 0-1.512.647-1.323 1.553M83 31.76c-2.466.805-7 5.494-7 7.24 0 .894 1.262 2.835 2.805 4.313 2.23 2.136 3.767 2.687 7.5 2.687 4.204 0 4.694.235 4.689 2.25-.004 1.475-1.095 2.869-3.166 4.049-2.956 1.682-3.052 1.906-1.483 3.475 1.56 1.56 1.867 1.562 4.416.028 1.506-.906 3.586-2.77 4.622-4.142 1.853-2.454 1.849-2.548-.27-5.977C92.637 41.676 91.317 41 85.977 41c-4.944 0-5.747-1.382-2.533-4.36 3.525-3.267 3.268-6.092-.444-4.88m70 6.181c0 2.515 1.614 3.507 2.395 1.471.958-2.496.718-3.412-.895-3.412-.825 0-1.5.873-1.5 1.941m-15 .548c0 1.45 5.062 5.511 6.869 5.511 1.222 0 3.131-3.209 3.131-5.264 0-.992-1.444-1.428-5-1.509-3.631-.082-5 .263-5 1.262m20 1.452c0 2.515 1.614 3.507 2.395 1.471.958-2.496.718-3.412-.895-3.412-.825 0-1.5.873-1.5 1.941M58.75 50.447C57.237 52.342 56 54.6 56 55.464 56 57.118 62.519 64 64.086 64c.503 0 .914.86.914 1.911C65 67.785 59.771 73 57.892 73c-2.046 0-2.057-3.196-.019-5.365 1.17-1.245 2.124-2.91 2.121-3.699C59.986 62.297 54.709 59 52.093 59 49.909 59 46 63.06 46 65.328c0 2.244 4.096 8.52 6 9.194.825.292 2.364 1.187 3.419 1.989 1.86 1.412 1.863 1.52.095 3.473-2.326 2.571-4.948 2.555-8.61-.052-2.075-1.478-2.904-2.905-2.904-5 0-3.374-.985-3.622-4.785-1.205-3.598 2.288-4.237 3.339-3.592 5.906.296 1.182.053 2.449-.542 2.817-2.576 1.592-1.004 4.549 3.605 6.781 5.495 2.661 7.399 5.088 5.483 6.991-1.044 1.038-2.223.756-6.277-1.5C32.262 91.59 31 91.834 31 96.059 31 97.677 30.53 99 29.955 99s-2.161 1.116-3.525 2.479c-1.931 1.931-2.333 3.091-1.82 5.25.98 4.122 3.029 5.958 7.436 6.662 3.121.499 3.954 1.067 3.954 2.693 0 1.914-.39 2.011-5.508 1.372-3.361-.42-5.992-.286-6.751.344-.733.608-1.244 3.432-1.243 6.867.002 5.717.066 5.852 3.252 6.79 3.902 1.149 4.074 2.42.75 5.543-3.357 3.154-3.166 6.262.577 9.411 5.197 4.374 13.269 2.569 17.518-3.916 1.623-2.476 1.609-2.728-.291-5.297-4.115-5.566-5.44-9.075-4.261-11.278.805-1.504.804-2.92-.002-5.231-1.438-4.127.469-5.699 6.011-4.955 3.17.425 3.948.215 3.948-1.067 0-.878-.847-2.05-1.882-2.604-1.036-.554-2.097-2.258-2.359-3.785s-.809-3.555-1.216-4.505c-.545-1.272-.074-2.03 1.791-2.879 2.867-1.306 4.992-5.571 4.498-9.025-.239-1.673-1.476-2.745-4.438-3.845-4.805-1.784-7.597-3.886-6.824-5.137.931-1.507 3.303-.992 7.43 1.613 2.178 1.375 4.837 2.5 5.909 2.5 2.493 0 4.907-2.419 5.745-5.758.362-1.44 2.275-4.267 4.252-6.283 5.048-5.148 7.649-8.795 7.27-10.199-.177-.661-1.674-2.321-3.326-3.689-4.722-3.912-5.39-5.867-2.907-8.51 2.33-2.48 1.887-5.561-.8-5.561-.904 0-2.88 1.551-4.393 3.447m138.239 6.677c-7.812 8.473-8.87 10.213-6.94 11.407C191.547 69.456 208 53.179 208 50.772c0-3.688-3.751-1.524-11.011 6.352m-78.489-.042c-18.346 4.04-21.039 5.183-34.118 14.481-11.497 8.174-19.789 19.397-26.074 35.294-3.252 8.224-3.418 9.256-3.425 21.283-.005 10.946.339 13.67 2.574 20.326 4.714 14.043 11.43 24.625 21.229 33.448 7.932 7.143 15.269 11.422 26.945 15.715 9.271 3.409 10.596 3.631 21.869 3.663 12.876.036 21.574-1.581 31.055-5.774 21.816-9.648 38.777-29.923 43.514-52.018 1.746-8.138 1.541-22.537-.436-30.801-3.694-15.433-16.006-33.325-29.133-42.335-15.95-10.947-38.933-16.6-54-13.282m82.75 9.078c-3.437 2.764-6.25 5.659-6.25 6.433 0 2.421 3.323 1.528 7.923-2.128 4.718-3.75 6.433-3.973 6.814-.887.158 1.274-1.274 3.028-4.25 5.204-2.468 1.805-4.487 3.916-4.487 4.693 0 1.556 3.501 8.031 5.827 10.775.816.963 2.313 1.75 3.328 1.75 2.204 0 2.329 1.776.313 4.441-1.85 2.447-1.838 3.046.103 4.988 2.204 2.203 3.293 1.962 4.008-.888.755-3.006 2.296-4.358 6.27-5.498 2.41-.691 3.501-.474 5.25 1.042 3.073 2.666 3.66 2.443 4.848-1.835 1.417-5.102 1.449-4.994-2.022-6.789-2.96-1.53-3.162-1.498-5.348.861-2.156 2.327-8.113 4.476-9.251 3.338-.291-.292.191-1.56 1.072-2.818s1.609-2.974 1.617-3.815.435-2.19.948-3.001c.787-1.245 1.316-1.113 3.41.855 1.364 1.281 2.923 2.054 3.465 1.719 1.638-1.012-.258-5.824-3.142-7.978L219 74.609l-2.75 2.048c-2.392 1.781-3.44 3.742-4.849 9.076-.501 1.9-2.991.462-4.345-2.509-1.153-2.53-.929-2.933 4.365-7.86 3.068-2.856 5.575-5.569 5.57-6.028-.014-1.368-7.018-8.342-8.304-8.269-.653.038-3.999 2.329-7.437 5.093M50.694 64.639c-.933.934.194 2.361 1.865 2.361.793 0 1.441-.675 1.441-1.5 0-1.506-2.111-2.056-3.306-.861m68.603 10.111c-15.01 17.611-24.456 36.07-27.389 53.523-3.415 20.328 6.009 39.783 23.084 47.654 15.951 7.352 27.629 4.483 44.258-10.871 3.805-3.514 6.75-7.067 6.75-8.145 0-2.547-.516-2.463-9.109 1.483-25.556 11.736-44.666 6.93-52.195-13.125-2.742-7.305-2.905-22.52-.345-32.201 2.251-8.511 9.629-23.416 16.832-34.002 3.199-4.702 5.817-8.89 5.817-9.307 0-2.269-3.385-.075-7.703 4.991m5.114 8.621c-1.112 2.897.021 5.129 2.603 5.129 2.096 0 2.486-.471 2.486-3 0-2.352-.487-3.069-2.254-3.32-1.323-.188-2.495.305-2.835 1.191M142 94.652c-4.836 2.135-6.587 2.376-14.5 1.997l-9-.43-4.182 7.14c-5.25 8.965-6.581 12.456-5.854 15.352.457 1.824 1.265 2.289 3.974 2.289 1.87 0 4.778-.787 6.462-1.75 2.302-1.316 3.484-1.485 4.764-.683 3.242 2.032 3.812 4.035 2.593 9.12-.635 2.647-1.446 7.288-1.802 10.313-.571 4.841-.474 5.32.817 4 1.44-1.474 5.491-14.464 6.44-20.652.922-6.008-5.673-9.3-11.712-5.848-6.102 3.488-7.244.009-2.913-8.872 3.535-7.251 5.107-8.386 8.519-6.151 3.403 2.23 11.198 1.934 15.394-.586 4.123-2.475 8-5.899 8-7.065 0-1.138-.702-.955-7 1.826m-111.333 9.015c-1.472 1.471-.524 4.077 1.88 5.172 3.512 1.601 5.966 1.453 7.548-.454 1.149-1.384 1.008-1.883-.988-3.5-2.278-1.844-7.116-2.543-8.44-1.218m195.214-.215c-.361.362-5.259 1.016-11.131 1.488-1.277.102-.825 3.817.528 4.336.703.27 3.879.083 7.058-.416 5.954-.933 9.013-.341 6.521 1.263-.746.48-2.589.615-4.095.298-5.156-1.083-11.943 5.581-9.328 9.158 1.289 1.762 1.509 1.694 4.363-1.362 3.701-3.961 8.374-4.345 11.955-.98l2.382 2.237 1.911-2.487c3.184-4.145 2.201-6.879-4.163-11.574-3.135-2.313-5.03-2.932-6.001-1.961m-9.297 21.731c-1.994 2.847-1.983 3.913.085 8.25 1.652 3.463 1.641 3.53-1.072 6.242-2.24 2.24-2.631 3.329-2.14 5.95.479 2.553.086 3.765-1.927 5.938-2.603 2.807-3.444 7.437-1.353 7.437.648 0 2.411-1.463 3.918-3.25 3.484-4.132 5.553-2.907 3.763 2.228-1.056 3.027-.949 3.53 1.097 5.187 1.247 1.009 3.234 1.835 4.416 1.835 2.402 0 7.629-4.371 7.629-6.379 0-2.326-6.073-8.478-9.004-9.122-3.497-.768-5.24-2.7-4.403-4.881 1.584-4.126 9.33-2.602 11.885 2.339.865 1.674 1.899 3.018 2.298 2.988.398-.031 1.798-1.413 3.11-3.073 2.238-2.83 2.305-3.276 1.07-7.195-1.873-5.943-2.685-6.677-7.387-6.677-4.986 0-8.183-1.958-7.234-4.431.547-1.425 1.732-1.664 6.913-1.395 5.694.297 6.252.147 6.252-1.674 0-1.813-.763-2.027-8.166-2.289-7.516-.266-8.292-.109-9.75 1.972M31 127.5c0 1.614.916 1.853 3.418.893 2.435-.934 1.875-2.393-.918-2.393-1.556 0-2.5.567-2.5 1.5m-.422 11.414c-2.553 2.821-1.366 5.093 2.641 5.054 7.044-.068 9.508-6.195 2.722-6.767-2.545-.214-4.056.269-5.363 1.713m195.819-.414c1.911 1.446 3.603 1.184 3.603-.559 0-.518-1.238-.927-2.75-.909-2.606.03-2.65.107-.853 1.468M44.461 149.265c-.378.971-.454 2.653-.17 3.738.654 2.502-2.335 6.358-6.154 7.94-3.763 1.559-8.603-.677-9.539-4.408-.933-3.719-4.598-3.498-4.598.278 0 2.916 3.376 6.848 7.866 9.162 5.702 2.939 18.134-4.7 18.134-11.142 0-.947-1.092-2.984-2.427-4.527-2.153-2.49-2.504-2.607-3.112-1.041m177.985 7.822c-1.03 1.668 1.287 3.58 2.667 2.2 1.154-1.154.432-3.287-1.113-3.287-.485 0-1.184.489-1.554 1.087M49.777 182.25c-4.219 3.438-7.695 6.778-7.724 7.423-.082 1.804 4.986 7.391 7.608 8.388 1.287.489 2.339 1.7 2.339 2.691 0 1.989 5.27 8.248 6.944 8.248 1.603 0 1.262-3.937-.494-5.693-1.75-1.75-1.558-4.807.303-4.807.674 0 2.738 1.319 4.587 2.932 3.153 2.751 3.296 3.145 2.308 6.365-.971 3.161-.838 3.59 1.682 5.425 2.139 1.558 2.489 2.291 1.603 3.359-.956 1.152-1.581 1.135-3.984-.107-3.5-1.81-3.949-1.827-3.949-.148 0 1.985 4.34 5.674 6.677 5.674 2.669 0 9.167-5.199 11.608-9.286 1.055-1.768 3.055-4.423 4.443-5.9l2.523-2.686-3.875-3.579c-2.93-2.705-4.609-3.514-6.876-3.314-2.44.216-3.059-.151-3.317-1.965-.362-2.547-4.616-6.27-7.164-6.27-2.798 0-7.703 2.869-9.442 5.524-.893 1.362-2.069 2.476-2.615 2.476-.912 0-4.95-5.758-4.958-7.071-.002-.313 2.921-2.914 6.496-5.779 6.429-5.152 8.167-8.15 4.724-8.15-.977 0-5.228 2.813-9.447 6.25m94.761 1.418c-2.528 1.718-4.065 2.252-4.315 1.5-.561-1.682-3.905-1.439-4.585.332-.767 1.999-4.617 1.903-7.603-.188-1.709-1.197-2.525-1.342-2.806-.5-.608 1.824-4.128 1.413-6.956-.812-6.159-4.845-5.653-1.068.838 6.25 3.53 3.979 5.838 5.75 7.495 5.75 1.316 0 2.394-.45 2.394-1s1.323-1 2.941-1 3.219.45 3.559 1c1.337 2.164 4.926.792 9.157-3.5 2.44-2.475 4.696-4.5 5.015-4.5s.308 1.35-.022 3c-.411 2.056-.206 3 .652 3 1.706 0 5.698-2.879 5.698-4.11 0-1.45-5.32-7.89-6.518-7.89-.56 0-2.785 1.201-4.944 2.668m52.843-1.22c-.298.778.438 2.74 1.635 4.36s2.022 3.674 1.831 4.563c-.313 1.459-.628 1.471-3.211.123-3.873-2.02-5.593-1.883-8.3.66-1.261 1.185-3.99 2.428-6.064 2.763-2.854.462-3.847 1.132-4.079 2.753-.169 1.179.445 2.748 1.364 3.487.92.739 4.056 3.806 6.97 6.817 4.865 5.025 5.522 5.394 8.032 4.5 3.471-1.236 5.338-3.977 3.776-5.539-.783-.783-1.696-.812-3.032-.097-2.321 1.242-3.572.541-6.768-3.79-1.878-2.545-2.224-3.761-1.472-5.165 1.937-3.619 4.255-3.937 11.042-1.516 5.027 1.793 6.912 3.067 8.813 5.957 1.329 2.022 3.017 3.676 3.75 3.676 2.849 0 1.084-5.34-4.762-14.407-6.11-9.476-8.512-11.783-9.525-9.145m-72.32 5.514c-1.91 1.181-.835 4.538 1.453 4.538 1.262 0 2.096-.773 2.289-2.123.33-2.315-1.741-3.651-3.742-2.415m11.082-.072c-1.878 1.191-.492 5.11 1.808 5.11 2.126 0 3.305-3.344 1.733-4.916-1.295-1.295-1.762-1.321-3.541-.194M109 190.981c0 2.397 4.539 3.889 6.323 2.078.905-.917.728-1.525-.764-2.626-2.827-2.087-5.559-1.817-5.559.548m-45.312 2.665c-1.416 1.415-.615 3.354 1.385 3.354 1.398 0 1.968-.543 1.75-1.667-.357-1.841-2.064-2.759-3.135-1.687m107.855 5.285c-.317.512-.118 1.213.441 1.559s1.016-.074 1.016-.931c0-1.757-.6-2.015-1.457-.628m-98.954 6.146c-2.855 3.393-2.965 3.78-1.659 5.844 1.826 2.884 8.981-4.104 7.678-7.499-.88-2.295-3.242-1.646-6.019 1.655m88.027 1.926c-3.986 4.413-4.379 6.586-2.07 11.453 2.634 5.551 7.008 8.999 11.416 8.999 4.079 0 8.038-2.579 8.038-5.235 0-1.459-2.961-1.343-7.155.281-2.172.84-7.565-4.108-8.409-7.716-.519-2.217-.041-3.259 2.601-5.672 2.075-1.895 3.02-3.523 2.631-4.535-.992-2.585-3.217-1.82-7.052 2.425m14.051-3.336c-1.303 1.303-.621 3.367 2.997 9.064 4.707 7.412 6.769 8.909 7.968 5.785.58-1.51-7.984-15.516-9.487-15.516-.446 0-1.112.3-1.478.667M88 206.035c0 .57.742 2.168 1.649 3.552 2.223 3.393.509 5.371-3.02 3.482-2.116-1.132-2.791-1.009-5.52 1.008-4.509 3.334-4.097 6.115 1.463 9.867 5.054 3.411 5.971 3.261 8.06-1.316.786-1.72 2.579-5.087 3.985-7.482l2.557-4.355-2.774-2.895c-2.719-2.838-6.4-3.908-6.4-1.861m-4.52 10.997c-.388.628-.28 1.568.24 2.088 1.214 1.214 4.484-.009 3.989-1.493-.523-1.573-3.376-1.974-4.229-.595m32.946 5.491c-1.473 3.526-.653 7.477 1.552 7.477 3.216 0 5.39-9.261 2.44-10.393-2.367-.908-2.406-.88-3.992 2.916"/><path fill="#1976d2" fill-opacity=".391" fill-rule="evenodd" d="M121.667 23.667c-1.088 1.087-.701 4.705.701 6.55 1.2 1.58 1.473 1.489 3.418-1.141 2.019-2.732 2.034-2.929.335-4.467-1.894-1.714-3.37-2.026-4.454-.942M183.5 26.65c32.464 16.738 57.237 50.148 62.583 84.403 1.64 10.507.641 33.418-1.873 42.947-11.468 43.472-42.687 74.322-87.21 86.177-10.944 2.914-38.557 3.687-50.094 1.403-16.992-3.365-32.949-9.881-47.091-19.228-9.054-5.985-27.106-25.101-33.083-35.034-5.445-9.048-13.725-27.536-13.747-30.696-.009-1.167-.452-2.797-.985-3.622-2.345-3.628-.208 9.348 2.882 17.5 2.657 7.011 10.179 20.736 15.346 28 15.254 21.444 39.82 37.865 67.662 45.227 12.858 3.4 38.147 4.319 52.269 1.899 19.761-3.386 37.908-11.199 53.591-23.072 16.153-12.229 27.018-25.174 35.136-41.859 6.077-12.491 8.616-20.332 10.59-32.695 4.672-29.273-2.389-59.969-19.322-84-6.994-9.927-21.447-23.699-32.728-31.187-5.54-3.677-11.282-6.99-12.759-7.36s-2.933-1.075-3.235-1.564-1.536-.88-2.741-.869c-1.39.013.368 1.34 4.809 3.63m-42 .35c.34.55 1.068 1 1.618 1s.722-.45.382-1-1.068-1-1.618-1-.722.45-.382 1m-35.421 3.405c-.939 1.131-.544 1.716 2.031 3 3.527 1.76 5.406 2.126 2.64.515-.963-.561-1.75-1.897-1.75-2.97 0-2.289-1.276-2.527-2.921-.545m47.588-.738c-1.343 1.343-.615 3.333 1.219 3.333 1.037 0 3.174.672 4.75 1.494 3.719 1.94 5.591 1.905 5.187-.097-.178-.882-2.573-2.457-5.323-3.5-5.863-2.223-5.019-2.045-5.833-1.23m-18.692 2.898c-.536 1.411-.975 3.577-.975 4.813 0 2.411 4.744 7.622 6.94 7.622.731 0 .144-.933-1.305-2.073-2.647-2.082-3.562-6.236-1.635-7.427.55-.34 1-1.716 1-3.059 0-3.277-2.764-3.192-4.025.124m10.369-.032c-.646 1.379-.743 2.467-.219 2.467 1.112 0 2.209-2.512 1.719-3.934-.189-.55-.864.11-1.5 1.467m-65.662 3.061C78.207 36.962 77 38.429 77 38.853c0 .425 1.324 2.041 2.942 3.592 2.021 1.935 3.601 2.646 5.044 2.269 1.155-.302 3.431-.168 5.057.298 1.627.467 2.957.538 2.957.159 0-1.488-4.152-3.171-6.419-2.602-2.85.715-6.581-1.045-6.581-3.104 0-.806.884-2.349 1.964-3.429 2.924-2.924.833-3.33-2.282-.442M92 34.69c0 .55.9 1.815 2 2.81s2 1.36 2 .81-.9-1.815-2-2.81-2-1.36-2-.81m23.25 2.39c.963.561 1.75 1.952 1.75 3.092 0 1.775.227 1.884 1.578.763 1.414-1.173 1.336-1.495-.75-3.1-1.28-.985-2.778-1.787-3.328-1.782s-.213.466.75 1.027m57.405 2.749c-2.038 2.252-2.054 3.063-.141 6.899.833 1.669 1.235 3.763.893 4.653-.737 1.92-4.458 2.137-6.332.369-1.069-1.009-1.237-.961-.868.25.251.825 1.642 1.919 3.092 2.431 2.233.79 3.022.515 5.168-1.801 1.393-1.503 2.533-2.866 2.533-3.029s-.919-1.355-2.043-2.651c-2.813-3.243-2.209-6.364 1.31-6.768 1.522-.175 2.508-.737 2.191-1.25-.948-1.534-4.035-1.057-5.803.897M98 40.875c0 1.689 4.774 6.68 5.601 5.855 1.425-1.421-1.043-6.216-3.371-6.55-1.227-.175-2.23.137-2.23.695m27 .656c0 1.612 2.662 3.141 3.686 2.117.712-.713-1.548-3.648-2.808-3.648-.483 0-.878.689-.878 1.531m-84.081 8.388C36.014 54.824 32 59.421 32 60.133c0 .974.322.932 1.299-.169.714-.805 5.069-5.401 9.677-10.214 4.608-4.812 8.037-8.75 7.62-8.75s-4.772 4.014-9.677 8.919M93 49.015c0 1.2-1.314 2.816-3.25 3.996-1.787 1.09-2.575 1.965-1.75 1.945 2.221-.055 8.33-5.613 7.552-6.872-1.093-1.768-2.552-1.236-2.552.931m-33.753 2.952c-2.669 3.385-2.305 4.698 2.227 8.033 1.869 1.375 3.899 3.581 4.51 4.902.829 1.791 1.4 2.114 2.246 1.268.845-.845.069-2.146-3.048-5.112-4.729-4.499-5.126-6.424-2.008-9.744 2.06-2.192 2.073-2.311.25-2.259-1.058.031-2.938 1.341-4.177 2.912m138.476 5.808C191.59 63.956 189.644 67 191.828 67c.748 0 8.795-8.159 13.577-13.766 1.465-1.718 1.574-2.234.473-2.234-.787 0-4.457 3.049-8.155 6.775M28.75 64.536c-2.498 3.34-2.173 4.272.364 1.046 1.163-1.478 1.95-2.845 1.75-3.037s-1.152.704-2.114 1.991m26.25-.63c0 2.602 1.477 3.429 2.951 1.653.938-1.13.757-1.645-.886-2.524-1.763-.944-2.065-.816-2.065.871m150.855.577c-1.295 1.365-2.839 2.49-3.431 2.5-.591.009-2.132 1.142-3.424 2.517-2.978 3.17-1.071 3.267 2.673.137 3.386-2.831 6.454-3.909 8.686-3.053 2.818 1.082 1.821 3.645-3.28 8.434-3.481 3.268-4.671 5.024-4.069 5.999.653 1.056 1.141.747 2.082-1.319.676-1.484 1.541-2.698 1.922-2.698.382 0 1.908-1.125 3.391-2.5s3.125-2.5 3.647-2.5c1.951 0 .847-3.896-1.953-6.894-1.596-1.708-3.124-3.106-3.395-3.106-.272 0-1.554 1.117-2.849 2.483m-158.519.084c-.331.862-.092 2.077.531 2.7.844.844 1.133.444 1.133-1.567 0-3.009-.749-3.518-1.664-1.133M50 70.3c0 1.672 2.028 3.7 3.7 3.7.72 0 1.3-1.115 1.3-2.5 0-2-.5-2.5-2.5-2.5-1.385 0-2.5.58-2.5 1.3m11.529 2.481L59.557 75.5l2.417-1.586c2.459-1.613 3.873-3.94 2.359-3.883-.458.018-1.72 1.255-2.804 2.75m118.395 1.549c2.548 2.806 3.096 3.151 3.045 1.92-.018-.412-1.255-1.614-2.75-2.67l-2.719-1.919zM38.011 76.487C36.373 78.46 37.442 81 39.91 81c2.475 0 3.403-1.438 2.587-4.009-.748-2.356-2.761-2.582-4.486-.504m79.435 2.348c-5.401 6.481-10.105 13.476-14.359 21.353C85.862 132.08 90.766 162.781 115 174.777c4.831 2.392 6.656 2.721 15 2.708 11.171-.017 15.282-1.727 25.884-10.77 10.393-8.862 10.868-11.746 1.133-6.881-8.274 4.134-19.559 6.539-27.883 5.942-11.569-.831-18.833-6.104-24.486-17.776-2.997-6.189-3.148-7.075-3.138-18.5.007-9.817.425-13.246 2.294-18.848 2.996-8.976 9.804-22.729 15.174-30.652 4.212-6.215 3.272-6.931-1.532-1.165m97.74.882c-2.588 3.217-3.166 9.341-.686 7.283.825-.685 1.5-2.26 1.5-3.5 0-3.731 2.394-4.943 5.606-2.839l2.739 1.795-1.788-2.728c-2.266-3.459-4.594-3.462-7.371-.011m-28.135 2.033c1.894 2.063 3.837 4.2 4.319 4.75s.395.1-.192-1c-1.473-2.76-5.733-7.5-6.741-7.5-.456 0 .72 1.688 2.614 3.75M19.459 80.067c-.363.586-.445 1.281-.183 1.543s.743-.218 1.069-1.067c.676-1.762.1-2.072-.886-.476m33.984 3.351c-1.067.78-1.642 1.717-1.277 2.081.843.843 4.834-1.25 4.834-2.534 0-1.364-1.299-1.198-3.557.453M125 85.5c0 .833.889 1.5 2 1.5s2-.667 2-1.5-.889-1.5-2-1.5-2 .667-2 1.5m-89.5.5c.34.55 1.266 1 2.059 1S39 86.55 39 86s-.927-1-2.059-1-1.781.45-1.441 1m170.53 1.056c1.393 2.602 3.77 3.544 5.237 2.077.844-.844.564-1.133-1.098-1.133-1.228 0-2.491-.675-2.807-1.5-.317-.825-.994-1.5-1.504-1.5-.515 0-.438.915.172 2.056M44 90c2.23 2.23 2.623 5.977.817 7.783-1.477 1.477-.621 2.463 1.448 1.669 1.953-.749 4.154-5.917 3.38-7.934-.32-.835-1.47-1.518-2.555-1.518-1.084 0-2.25-.45-2.59-1s-1.041-1-1.559-1-.041.9 1.059 2m148.5-1c.34.55.816 1 1.059 1s.441-.45.441-1-.477-1-1.059-1-.781.45-.441 1m32.18.801c-1.6 1.768-1.584 1.976.275 3.658 2.711 2.454 5.265 1.301 4.862-2.195-.384-3.326-2.822-4.021-5.137-1.463M212.2 96.2c-1.439 1.439-1.585 3.8-.235 3.8.891 0 3.035-3.132 3.035-4.434 0-.971-1.545-.621-2.8.634m-177.385.484c.723.289 1.724 1.604 2.225 2.921.905 2.381 3.96 3.388 3.96 1.305 0-1.512-4.178-4.853-6-4.798-1.108.034-1.157.183-.185.572M133.5 99c-1.686.724-1.499.87 1.191.93 1.755.038 3.469-.38 3.809-.93.741-1.199-2.209-1.199-5 0m-105.983 3.626c-1.997 1.997-1.616 6.297.685 7.738 2.435 1.524 3.429-.009 1.434-2.213-1.715-1.896-1.34-4.927.791-6.386.737-.504.704-.739-.106-.75-.648-.008-1.91.717-2.804 1.611m14.855 4.981c-.372 1.041-1.352 2.68-2.179 3.643-1.386 1.614-1.26 1.75 1.627 1.75 2.992 0 3.103-.144 2.511-3.25-.784-4.122-1.122-4.491-1.959-2.143m174.441-.924c.721.289 1.584.253 1.916-.079s-.258-.568-1.312-.525c-1.165.048-1.402.285-.604.604m-104.084 1.921c-.401.401-.729 1.554-.729 2.563 0 1.008-.398 1.833-.883 1.833-1.154 0-2.132 3.797-1.442 5.596.626 1.631 4.325 1.92 4.325.338 0-.586-.466-1.936-1.035-3-.723-1.35-.703-2.554.065-3.989 1.159-2.167.942-4.584-.301-3.341m118.5 1.567c-1.75 1.75-1.527 3.249.795 5.35 2.546 2.305 4.266.885 3.804-3.141-.355-3.096-2.623-4.185-4.599-2.209m-14.201 5.295c-2.243 2.703-.519 3.686 1.916 1.093 1.829-1.946 2.033-2.559.853-2.559-.854 0-2.1.66-2.769 1.466m-91.278 2.761c1.237 1.321 2.25 2.935 2.25 3.587s.479 1.186 1.063 1.186c.598 0 .926-1.424.75-3.25-.268-2.783-.744-3.298-3.313-3.587l-3-.338zm-101.092.448c-.362.362-.658 3.091-.658 6.065 0 4.611.258 5.357 1.75 5.07 1.372-.264 1.756-1.374 1.778-5.135.026-4.508-1.394-7.476-2.87-6m193.474 7.685c-1.917 2.04-2.057 2.709-1.039 4.945 1.06 2.326 3.659 4.277 4.533 3.403.186-.187-.205-1.782-.871-3.545-.952-2.522-.946-3.627.026-5.184 1.703-2.726.046-2.488-2.649.381M33.5 133c-1.782 1.97-1.747 2 2.345 2 4.281 0 5.038-.717 2.955-2.8-1.717-1.717-3.229-1.489-5.3.8m-6.752 5.442c-2.102 1.537-2.258 3.89-.361 5.464 1.133.94 1.474.458 1.858-2.627.569-4.565.652-4.408-1.497-2.837m15.22.308c-.074 4.095-6.161 7.92-10.763 6.765-1.648-.413-2.155-.243-1.658.56.447.725 2.366.969 5.146.656 5.122-.577 9.307-3.907 9.307-7.405 0-2.67-1.984-3.232-2.032-.576M216.2 141.2c-.66.66-1.2 1.56-1.2 2 0 1.473 1.506.82 2.768-1.2 1.367-2.19.344-2.712-1.568-.8m14.467-.533c-1.069 1.069-.769 5.152.434 5.895 1.584.98 5.302-3.071 4.569-4.979-.609-1.588-3.755-2.165-5.003-.916m-17.453 11.296c-1.768 1.475-3.214 3.212-3.214 3.86 0 2.028 1.422 1.287 3.5-1.823 2.312-3.462 4.964-3.87 6.5-1 .626 1.17 2.094 2 3.535 2 4.725 0 2.371-3.136-3.571-4.756-3.129-.854-3.906-.655-6.75 1.719m-167.611.803c.676 3.378-2.065 7.227-6.812 9.566-2.868 1.414-2.995 1.625-.991 1.645 3.595.036 8.014-2.716 9.748-6.07 1.444-2.791 1.443-3.272-.006-5.483-2.07-3.16-2.62-3.063-1.939.342M25 157.313c0 1.537 4.732 6.124 7.218 6.997 2.921 1.025 2.802-.813-.137-2.114-1.526-.675-3.284-2.346-3.906-3.712-1.203-2.639-3.175-3.367-3.175-1.171m202.015 1.659c-1.235 2.307.14 2.751 1.911.617.755-.91.817-1.63.173-2.028-.549-.339-1.487.296-2.084 1.411m-8.339-.314c-1.441 1.44-.561 3.154 1.942 3.782 3.542.889 3.81.311 1.054-2.279-1.276-1.198-2.624-1.875-2.996-1.503m-28.195 13.369c-1.549 2.236-6.155 7.194-10.236 11.019S173.274 190 173.824 190c1.389 0 16.469-14.87 18.595-18.337 2.728-4.446 1.196-4.159-1.938.364m-119.347 5.772c1.851 2.089 4.491 4.631 5.866 5.647s.04-.692-2.966-3.798c-6.229-6.437-7.92-7.515-2.9-1.849M50.5 183.213c-3.3 2.8-6.131 5.826-6.292 6.725-.16.9.853 2.71 2.25 4.023S49 195.847 49 195.233s-.45-1.393-1-1.733-1-1.678-1-2.975c0-1.728 1.592-3.512 5.971-6.691 3.284-2.383 5.984-4.672 6-5.084.071-1.825-2.911-.254-8.471 4.463m96.313 1.47c.721.289 1.584.253 1.916-.079s-.258-.568-1.312-.525c-1.165.048-1.402.285-.604.604m53.187.258c0 .518.445 1.216.989 1.552.566.35.734-.051.393-.941-.665-1.732-1.382-2.049-1.382-.611m-69 5.559c0 .825.675 1.5 1.5 1.5s1.5-.675 1.5-1.5-.675-1.5-1.5-1.5-1.5.675-1.5 1.5m61 1.5c0 .55.702 1 1.559 1s1.281-.45.941-1-1.041-1-1.559-1-.941.45-.941 1m10.6.6c-.991 2.584-.761 2.941 3.4 5.28 2.2 1.236 4 2.894 4 3.684s.45 1.436 1 1.436c1.301 0 1.291-1.702-.015-2.509-.558-.345-1.645-2.136-2.415-3.979-1.702-4.072-5.063-6.275-5.97-3.912m-145.043 1.623c-2.194 3.132-1.954 3.71 1.193 2.873 1.765-.469 2.864-1.512 3.07-2.913.425-2.905-2.218-2.88-4.263.04M68 193.941c0 .518.45 1.219 1 1.559s1-.084 1-.941S69.55 193 69 193s-1 .423-1 .941m112.56 3.755c-.48 1.244-.027 2.269 1.461 3.304 1.187.825 4.262 3.664 6.833 6.309 3.363 3.46 5.162 4.622 6.41 4.143 2.376-.912 2.189-2.452-.297-2.452-3.279 0-9.161-6.552-8.784-9.784.267-2.286-.099-2.764-2.305-3.02-1.792-.208-2.843.267-3.318 1.5M53.033 200.25c.033 1.225 3.36 5.75 4.228 5.75.242 0-.052-1.575-.655-3.5-1.034-3.305-3.645-4.949-3.573-2.25m11.364.25c1.911 1.446 3.603 1.184 3.603-.559 0-.518-1.237-.927-2.75-.909-2.606.03-2.65.107-.853 1.468M75.5 200c.34.55 1.266 1 2.059 1S79 200.55 79 200s-.927-1-2.059-1-1.781.45-1.441 1m-6.25 2.662c-.687.278-1.25 1.277-1.25 2.221s-.51 2.227-1.133 2.85c-1.488 1.488-.375 4.267 1.71 4.267 1.22 0 1.489-.599 1.053-2.338-.339-1.35.025-3.147.86-4.25 2.312-3.056 1.882-4.009-1.24-2.75M80 204.577c0 2.509-3.527 6.775-7.389 8.938-1.171.655-1.688 1.875-1.461 3.448l.35 2.433 2.742-2.948c4.83-5.192 9.836-12.513 9.229-13.496-1.224-1.979-3.471-.928-3.471 1.625m82.925 1.705c-.866.67-2.362 2.428-3.324 3.906-1.675 2.573-1.667 2.871.189 7 2.569 5.716 6.413 9.145 10.249 9.145 3.107 0 6.923-2.704 5.635-3.993-.389-.388-1.24-.174-1.891.477-2.232 2.232-5.946 1.29-9.415-2.388-4.172-4.424-4.471-8.503-.868-11.841 3.542-3.283 3.08-5.133-.575-2.306m13.075.103c0 1.668 6.187 11.561 7.25 11.593 1.492.044.684-2.177-2.738-7.526-3.598-5.626-4.512-6.449-4.512-4.067m-84.432 3.365c1.33 2.524 1.284 2.863-.56 4.122-1.104.755-2.008 2.452-2.008 3.771 0 1.587-.844 2.784-2.492 3.535-1.934.882-2.243 1.437-1.378 2.479 2.061 2.482 3.143 1.445 6.946-6.657 3.419-7.286 3.366-6.954 1.349-8.48-2.9-2.194-3.464-1.82-1.857 1.23M105 216.102c0 1.232-.787 3.129-1.75 4.216-1.411 1.593-.975 1.49 2.25-.53 4.446-2.785 5.175-5.121 1.75-5.608-1.759-.249-2.25.17-2.25 1.922m8.816 2.402c-.627 1.378-.804 2.84-.392 3.25.952.949 4.754-3.656 4.012-4.858-.99-1.601-2.454-.95-3.62 1.608m7.169-.55c1.367 1.05 2.668 1.726 2.893 1.502.782-.783-2.137-3.456-3.75-3.434-1.214.017-.995.509.857 1.932M79 219c0 1.367.667 2 2.107 2 1.51 0 1.935-.448 1.5-1.582-.334-.87-.607-1.77-.607-2s-.675-.418-1.5-.418c-.833 0-1.5.889-1.5 2m18.308 5.251c-1.205.551-2.453 1.685-2.773 2.519-.694 1.807-.59 1.939 1.873 2.385 1.398.253 2.124-.443 2.717-2.605.971-3.542.952-3.566-1.817-2.299m25.281 3.499c-.398 1.238-1.095 2.25-1.549 2.25s-1.121.787-1.482 1.75c-.443 1.179.214.888 2.012-.892 1.468-1.453 2.46-3.253 2.206-4-.3-.881-.717-.568-1.187.892M112 231c0 4.23.933 4.99 3.028 2.466 1.033-1.244 1.024-2-.046-4-1.916-3.58-2.982-3.031-2.982 1.534m18-.5c0 .825.45 1.5 1 1.5s1-.675 1-1.5-.45-1.5-1-1.5-1 .675-1 1.5"/></svg>